<?xml version="1.0" encoding="UTF-8"?>
<!DOCTYPE svg PUBLIC "-//W3C//DTD SVG 1.1//EN" "http://www.w3.org/Graphics/SVG/1.1/DTD/svg11.dtd">
<!-- Creator: CorelDRAW -->
<svg xmlns="http://www.w3.org/2000/svg" xml:space="preserve" width="210mm" height="297mm" version="1.1" style="shape-rendering:geometricPrecision; text-rendering:geometricPrecision; image-rendering:optimizeQuality; fill-rule:evenodd; clip-rule:evenodd"
viewBox="0 0 21000 29700"
 xmlns:xlink="http://www.w3.org/1999/xlink">
 <defs>
  <style type="text/css">
   <![CDATA[
    .fil1 {fill:#002D71}
    .fil0 {fill:#158D2C}
    .fil3 {fill:black;fill-rule:nonzero}
    .fil2 {fill:#158D2C;fill-rule:nonzero}
   ]]>
  </style>
 </defs>
 <g id="Layer_x0020_1">
  <metadata id="CorelCorpID_0Corel-Layer"/>
  <g id="JKN_x0020__x0028_Jaminan_x0020_Kesehatan_x0020_Nasional_x0029_.cdr">
   <path class="fil0" d="M10910 10542l-1345 0 0 7160c-29,626 -534,1134 -1135,1134 -619,0 -1122,-530 -1122,-1184 0,-40 2,-79 6,-119l-1364 0c0,1300 1110,2354 2480,2354 1307,0 2384,-969 2480,-2185 0,-2 0,-4 0,-6l0 -7154z"/>
   <polygon class="fil1" points="13082,13676 14091,14581 11874,16532 14919,19495 12922,19495 10910,17538 10910,15588 "/>
   <path class="fil2" d="M19219 19495l-1737 0 0 -3546c0,-573 -467,-838 -726,-838 -255,0 -722,265 -722,838l0 3546 -1115 0 -622 -605 0 -2898c0,-817 239,-1507 715,-2066 476,-561 1058,-840 1750,-840 788,0 1421,324 1897,976 372,507 560,1214 560,2119l0 3314z"/>
   <path class="fil0" d="M9775 8350c3509,0 6493,1556 7600,3727 -1107,-1469 -4091,-2522 -7600,-2522 -3509,0 -6493,1053 -7599,2522 1106,-2171 4090,-3727 7599,-3727z"/>
   <path class="fil3" d="M2363 20533l0 469c0,41 -1,76 -5,104 -3,29 -11,58 -24,87 -20,50 -54,88 -101,116 -47,27 -104,41 -171,41 -61,0 -111,-10 -152,-29 -41,-19 -73,-50 -98,-93 -13,-22 -24,-49 -32,-78 -8,-30 -12,-59 -12,-85 0,-29 8,-51 24,-66 16,-15 36,-22 61,-22 24,0 42,6 54,20 13,14 22,36 28,65 7,32 14,57 21,75 7,19 19,35 35,49 16,13 40,20 70,20 80,0 120,-59 120,-177l0 -496c0,-37 9,-64 25,-83 16,-18 38,-27 65,-27 28,0 51,9 67,27 17,19 25,46 25,83zm608 723c-41,32 -80,55 -117,71 -38,15 -80,23 -127,23 -43,0 -81,-9 -113,-25 -33,-17 -58,-40 -75,-69 -18,-29 -26,-61 -26,-94 0,-46 14,-85 43,-117 29,-33 69,-54 120,-65 10,-3 36,-8 78,-17 42,-8 79,-16 108,-23 30,-7 63,-16 98,-26 -2,-44 -11,-77 -27,-97 -15,-21 -48,-31 -97,-31 -43,0 -75,6 -96,18 -22,12 -40,29 -55,53 -15,24 -26,39 -33,47 -6,7 -20,11 -40,11 -19,0 -35,-6 -49,-18 -14,-12 -20,-27 -20,-46 0,-30 10,-58 31,-86 21,-28 53,-51 97,-69 44,-18 99,-26 165,-26 73,0 131,8 173,26 42,17 72,44 89,82 17,38 26,87 26,149 0,40 0,73 0,100 -1,27 -1,58 -1,91 0,32 5,64 16,99 10,33 15,55 15,65 0,17 -8,33 -24,47 -16,14 -35,21 -55,21 -17,0 -34,-8 -51,-24 -16,-16 -34,-39 -53,-70zm-11 -242c-25,9 -60,19 -107,29 -46,10 -79,17 -97,22 -18,4 -35,14 -51,27 -16,14 -25,33 -25,58 0,25 10,46 29,64 19,18 44,27 75,27 33,0 64,-7 92,-22 28,-14 48,-33 61,-56 15,-25 23,-67 23,-125l0 -24zm889 9l0 222c0,35 -8,61 -24,79 -16,17 -37,26 -63,26 -25,0 -46,-9 -61,-26 -16,-18 -24,-44 -24,-79l0 -266c0,-43 -1,-75 -4,-98 -3,-24 -11,-43 -24,-58 -12,-14 -32,-22 -60,-22 -54,0 -90,19 -108,56 -17,38 -26,92 -26,162l0 226c0,34 -8,61 -23,78 -16,18 -37,27 -62,27 -26,0 -46,-9 -62,-27 -16,-17 -25,-44 -25,-78l0 -478c0,-31 8,-56 22,-72 15,-16 34,-24 57,-24 23,0 42,7 57,23 16,15 23,36 23,63l0 16c29,-35 60,-60 93,-77 33,-16 70,-24 110,-24 43,0 79,8 109,25 30,17 55,42 74,76 29,-34 59,-60 91,-76 32,-17 68,-25 107,-25 46,0 85,9 118,27 33,18 58,44 74,77 15,30 22,78 22,142l0 327c0,35 -8,61 -24,79 -16,17 -37,26 -63,26 -25,0 -46,-9 -62,-27 -16,-17 -24,-44 -24,-78l0 -281c0,-36 -2,-65 -5,-86 -3,-22 -11,-40 -25,-55 -13,-15 -34,-22 -61,-22 -22,0 -43,7 -63,20 -19,13 -35,30 -46,52 -12,28 -18,78 -18,150zm720 -257l0 482c0,34 -8,59 -24,76 -16,17 -36,26 -60,26 -25,0 -44,-9 -60,-26 -15,-18 -23,-43 -23,-76l0 -477c0,-34 8,-58 23,-75 16,-17 35,-25 60,-25 24,0 44,8 60,25 16,17 24,40 24,70zm-82 -173c-24,0 -43,-7 -60,-21 -16,-14 -25,-35 -25,-61 0,-23 9,-43 26,-58 17,-15 36,-23 59,-23 21,0 40,7 57,21 17,14 25,34 25,60 0,26 -8,46 -24,60 -17,15 -36,22 -58,22zm406 170l0 20c30,-39 62,-67 97,-85 35,-18 75,-27 120,-27 44,0 83,9 118,29 35,19 61,46 78,81 11,20 18,42 21,66 4,24 5,54 5,90l0 311c0,34 -7,59 -23,76 -15,17 -35,26 -59,26 -25,0 -46,-9 -61,-26 -16,-18 -23,-43 -23,-76l0 -278c0,-55 -8,-97 -23,-127 -16,-29 -46,-43 -92,-43 -30,0 -57,9 -81,26 -25,18 -43,43 -54,74 -8,25 -12,71 -12,139l0 209c0,34 -8,60 -24,77 -16,16 -36,25 -60,25 -25,0 -44,-9 -60,-26 -15,-18 -23,-43 -23,-76l0 -482c0,-32 7,-56 21,-72 14,-15 32,-23 57,-23 14,0 27,3 39,10 12,7 21,18 29,31 7,14 10,31 10,51zm1028 493c-40,32 -79,55 -117,71 -38,15 -80,23 -127,23 -43,0 -81,-9 -113,-25 -32,-17 -58,-40 -75,-69 -18,-29 -26,-61 -26,-94 0,-46 14,-85 43,-117 29,-33 69,-54 120,-65 10,-3 37,-8 79,-17 41,-8 78,-16 107,-23 30,-7 63,-16 98,-26 -2,-44 -11,-77 -26,-97 -16,-21 -49,-31 -98,-31 -43,0 -75,6 -96,18 -21,12 -40,29 -55,53 -15,24 -26,39 -32,47 -7,7 -20,11 -41,11 -19,0 -35,-6 -49,-18 -13,-12 -20,-27 -20,-46 0,-30 10,-58 31,-86 21,-28 53,-51 97,-69 44,-18 99,-26 165,-26 73,0 131,8 173,26 42,17 72,44 89,82 17,38 26,87 26,149 0,40 0,73 0,100 0,27 -1,58 -1,91 0,32 5,64 16,99 10,33 15,55 15,65 0,17 -8,33 -24,47 -16,14 -34,21 -55,21 -17,0 -34,-8 -51,-24 -16,-16 -34,-39 -53,-70zm-11 -242c-24,9 -60,19 -107,29 -46,10 -79,17 -97,22 -18,4 -35,14 -51,27 -16,14 -24,33 -24,58 0,25 9,46 28,64 19,18 44,27 76,27 33,0 63,-7 91,-22 28,-14 48,-33 61,-56 16,-25 23,-67 23,-125l0 -24zm485 -251l0 20c29,-39 61,-67 96,-85 35,-18 75,-27 121,-27 44,0 83,9 118,29 35,19 60,46 78,81 11,20 18,42 21,66 3,24 5,54 5,90l0 311c0,34 -8,59 -23,76 -15,17 -35,26 -60,26 -25,0 -45,-9 -61,-26 -15,-18 -23,-43 -23,-76l0 -278c0,-55 -8,-97 -23,-127 -15,-29 -46,-43 -91,-43 -30,0 -57,9 -82,26 -24,18 -42,43 -53,74 -9,25 -13,71 -13,139l0 209c0,34 -8,60 -23,77 -16,16 -36,25 -61,25 -24,0 -44,-9 -59,-26 -16,-18 -23,-43 -23,-76l0 -482c0,-32 6,-56 20,-72 14,-15 33,-23 57,-23 15,0 28,3 40,10 12,7 21,18 28,31 7,14 11,31 11,51zm1113 -230l0 314 357 -372c17,-18 32,-31 44,-39 12,-9 28,-13 48,-13 26,0 47,7 63,23 16,15 24,33 24,56 0,26 -13,52 -41,79l-221 209 255 364c18,26 31,48 40,67 9,19 14,37 14,55 0,20 -8,37 -24,52 -16,15 -37,22 -64,22 -25,0 -46,-5 -62,-16 -16,-11 -29,-25 -40,-43 -11,-18 -21,-35 -29,-49l-215 -331 -149 143 0 185c0,38 -8,66 -26,84 -17,18 -39,27 -66,27 -15,0 -30,-4 -44,-12 -15,-8 -26,-19 -33,-33 -6,-12 -9,-25 -11,-40 -1,-15 -2,-37 -2,-65l0 -667c0,-37 9,-64 25,-83 16,-18 38,-27 65,-27 28,0 50,9 67,27 17,18 25,46 25,83zm1152 519l-327 0c0,38 8,71 23,100 15,29 34,51 59,66 25,14 52,22 82,22 20,0 38,-3 54,-7 17,-5 33,-12 48,-22 16,-10 30,-21 43,-32 13,-12 30,-27 51,-47 9,-7 21,-11 37,-11 17,0 31,5 42,14 10,9 15,23 15,40 0,15 -6,32 -17,53 -12,20 -30,39 -54,57 -24,19 -54,35 -90,47 -36,12 -77,18 -124,18 -108,0 -191,-31 -251,-92 -59,-61 -89,-144 -89,-249 0,-49 8,-95 22,-137 15,-43 36,-79 64,-109 29,-30 63,-53 104,-69 42,-16 87,-24 137,-24 66,0 122,13 168,41 47,27 82,63 105,107 24,43 35,88 35,133 0,42 -12,70 -36,82 -24,12 -58,19 -101,19zm-327 -96l303 0c-4,-57 -20,-99 -47,-128 -26,-28 -61,-42 -105,-42 -42,0 -76,14 -103,43 -26,29 -43,71 -48,127zm1143 176c0,46 -11,85 -34,118 -22,33 -55,58 -99,75 -44,17 -97,25 -160,25 -60,0 -111,-9 -154,-28 -43,-18 -75,-41 -95,-68 -20,-28 -31,-55 -31,-83 0,-18 7,-34 20,-47 13,-13 29,-20 50,-20 17,0 30,5 40,13 9,9 18,21 27,36 17,30 37,52 61,67 24,15 57,22 98,22 33,0 61,-7 82,-22 21,-15 32,-32 32,-51 0,-30 -11,-51 -33,-65 -23,-13 -59,-26 -110,-38 -58,-14 -104,-30 -140,-45 -36,-16 -65,-37 -87,-62 -21,-26 -32,-58 -32,-95 0,-34 10,-65 30,-95 20,-30 49,-54 88,-72 39,-17 86,-26 141,-26 43,0 82,4 116,13 35,9 64,21 87,36 23,16 40,32 52,51 12,18 19,36 19,53 0,19 -7,35 -20,47 -13,13 -31,19 -55,19 -17,0 -31,-5 -43,-15 -12,-10 -26,-24 -42,-44 -12,-16 -27,-29 -44,-39 -17,-10 -41,-15 -70,-15 -30,0 -55,7 -75,19 -20,13 -30,30 -30,49 0,17 7,32 22,43 15,11 34,20 59,28 25,7 59,16 103,27 52,12 94,27 127,45 33,18 58,38 74,62 17,24 26,51 26,82zm608 -80l-327 0c0,38 8,71 23,100 14,29 34,51 59,66 25,14 52,22 82,22 20,0 38,-3 54,-7 17,-5 33,-12 48,-22 16,-10 30,-21 43,-32 13,-12 30,-27 51,-47 9,-7 21,-11 37,-11 17,0 31,5 41,14 11,9 16,23 16,40 0,15 -6,32 -17,53 -12,20 -30,39 -54,57 -24,19 -54,35 -90,47 -36,12 -78,18 -124,18 -108,0 -191,-31 -251,-92 -59,-61 -89,-144 -89,-249 0,-49 7,-95 22,-137 15,-43 36,-79 64,-109 28,-30 63,-53 104,-69 41,-16 87,-24 137,-24 66,0 122,13 168,41 47,27 82,63 105,107 23,43 35,88 35,133 0,42 -12,70 -36,82 -24,12 -58,19 -101,19zm-327 -96l302 0c-3,-57 -19,-99 -46,-128 -26,-28 -61,-42 -105,-42 -42,0 -76,14 -103,43 -26,29 -43,71 -48,127zm768 -432l0 248c21,-25 42,-44 62,-58 20,-15 43,-25 67,-33 25,-7 51,-10 79,-10 43,0 80,9 113,27 33,18 59,44 78,78 11,20 19,42 24,67 4,25 6,53 6,85l0 320c0,34 -8,59 -23,76 -16,17 -36,26 -61,26 -55,0 -83,-34 -83,-102l0 -282c0,-53 -8,-94 -24,-123 -16,-29 -46,-43 -90,-43 -30,0 -57,8 -81,25 -24,17 -42,40 -53,70 -9,25 -14,69 -14,133l0 220c0,33 -7,59 -22,76 -15,17 -36,26 -62,26 -55,0 -83,-34 -83,-102l0 -724c0,-34 8,-59 22,-76 15,-17 35,-25 61,-25 26,0 47,8 62,25 15,17 22,43 22,76zm1016 732c-40,32 -79,55 -117,71 -38,15 -80,23 -127,23 -43,0 -81,-9 -113,-25 -32,-17 -57,-40 -75,-69 -17,-29 -26,-61 -26,-94 0,-46 14,-85 43,-117 29,-33 69,-54 120,-65 10,-3 37,-8 79,-17 42,-8 78,-16 108,-23 29,-7 62,-16 97,-26 -2,-44 -11,-77 -26,-97 -16,-21 -49,-31 -98,-31 -43,0 -74,6 -96,18 -21,12 -40,29 -55,53 -15,24 -26,39 -32,47 -7,7 -20,11 -41,11 -19,0 -35,-6 -49,-18 -13,-12 -20,-27 -20,-46 0,-30 10,-58 31,-86 21,-28 53,-51 97,-69 44,-18 99,-26 165,-26 73,0 131,8 173,26 42,17 72,44 89,82 18,38 26,87 26,149 0,40 0,73 0,100 0,27 -1,58 -1,91 0,32 5,64 16,99 10,33 15,55 15,65 0,17 -8,33 -24,47 -16,14 -34,21 -55,21 -17,0 -34,-8 -51,-24 -16,-16 -34,-39 -53,-70zm-11 -242c-24,9 -60,19 -107,29 -46,10 -79,17 -96,22 -18,4 -36,14 -52,27 -16,14 -24,33 -24,58 0,25 9,46 29,64 19,18 44,27 75,27 33,0 63,-7 91,-22 28,-14 48,-33 62,-56 15,-25 22,-67 22,-125l0 -24zm312 -328l18 0 0 -101c0,-27 1,-48 2,-63 2,-15 6,-29 12,-39 7,-12 16,-21 28,-28 12,-8 26,-11 41,-11 21,0 40,8 58,24 11,10 18,23 21,39 3,15 5,37 5,65l0 114 61 0c24,0 42,5 54,17 13,11 19,25 19,43 0,22 -9,38 -27,47 -18,9 -43,13 -76,13l-31 0 0 307c0,26 1,47 3,61 1,14 6,25 14,34 8,9 21,13 39,13 10,0 23,-2 40,-5 17,-4 30,-6 39,-6 14,0 26,6 37,17 10,11 16,24 16,40 0,27 -15,47 -44,61 -30,15 -72,22 -127,22 -52,0 -92,-9 -118,-26 -27,-18 -45,-42 -53,-73 -9,-31 -13,-72 -13,-124l0 -321 -22 0c-24,0 -42,-6 -55,-17 -13,-11 -19,-26 -19,-43 0,-18 7,-32 20,-43 13,-12 33,-17 58,-17zm856 570c-40,32 -79,55 -117,71 -38,15 -80,23 -127,23 -43,0 -80,-9 -113,-25 -32,-17 -57,-40 -75,-69 -17,-29 -26,-61 -26,-94 0,-46 14,-85 43,-117 29,-33 69,-54 120,-65 10,-3 37,-8 79,-17 42,-8 78,-16 108,-23 30,-7 62,-16 97,-26 -2,-44 -11,-77 -26,-97 -16,-21 -48,-31 -98,-31 -42,0 -74,6 -96,18 -21,12 -40,29 -55,53 -15,24 -26,39 -32,47 -7,7 -20,11 -41,11 -19,0 -35,-6 -49,-18 -13,-12 -20,-27 -20,-46 0,-30 10,-58 31,-86 21,-28 53,-51 97,-69 45,-18 99,-26 165,-26 74,0 131,8 173,26 42,17 72,44 89,82 18,38 26,87 26,149 0,40 0,73 0,100 0,27 0,58 -1,91 0,32 5,64 16,99 10,33 15,55 15,65 0,17 -8,33 -24,47 -16,14 -34,21 -55,21 -17,0 -34,-8 -50,-24 -17,-16 -35,-39 -54,-70zm-11 -242c-24,9 -60,19 -106,29 -47,10 -79,17 -97,22 -18,4 -35,14 -52,27 -16,14 -24,33 -24,58 0,25 9,46 29,64 19,18 44,27 75,27 33,0 63,-7 91,-22 28,-14 49,-33 62,-56 15,-25 22,-67 22,-125l0 -24zm485 -251l0 20c30,-39 62,-67 97,-85 34,-18 75,-27 120,-27 44,0 83,9 118,29 35,19 61,46 78,81 11,20 18,42 21,66 3,24 5,54 5,90l0 311c0,34 -8,59 -23,76 -15,17 -35,26 -60,26 -24,0 -45,-9 -60,-26 -16,-18 -24,-43 -24,-76l0 -278c0,-55 -7,-97 -23,-127 -15,-29 -45,-43 -91,-43 -30,0 -57,9 -81,26 -25,18 -43,43 -54,74 -8,25 -12,71 -12,139l0 209c0,34 -8,60 -24,77 -16,16 -36,25 -61,25 -24,0 -43,-9 -59,-26 -15,-18 -23,-43 -23,-76l0 -482c0,-32 7,-56 21,-72 14,-15 32,-23 56,-23 15,0 28,3 40,10 12,7 21,18 28,31 8,14 11,31 11,51zm1168 -231l349 529 0 -534c0,-35 7,-61 22,-78 15,-18 35,-26 60,-26 26,0 47,8 62,26 15,17 23,43 23,78l0 705c0,79 -33,118 -98,118 -16,0 -31,-2 -44,-7 -13,-5 -25,-12 -37,-22 -11,-10 -22,-22 -32,-36 -9,-14 -19,-28 -29,-42l-341 -522 0 525c0,34 -8,60 -23,78 -17,17 -37,26 -62,26 -26,0 -46,-9 -62,-27 -15,-17 -23,-43 -23,-77l0 -692c0,-29 3,-52 10,-69 7,-18 20,-33 38,-45 18,-12 38,-17 58,-17 17,0 31,2 42,8 12,5 22,12 31,21 9,9 18,21 27,35 9,14 19,29 29,45z"/>
   <path class="fil3" d="M15466 21256c-41,32 -80,55 -118,71 -37,15 -80,23 -127,23 -42,0 -80,-9 -113,-25 -32,-17 -57,-40 -75,-69 -17,-29 -26,-61 -26,-94 0,-46 14,-85 43,-117 30,-33 69,-54 120,-65 11,-3 37,-8 79,-17 42,-8 78,-16 108,-23 30,-7 62,-16 97,-26 -2,-44 -10,-77 -26,-97 -16,-21 -48,-31 -98,-31 -42,0 -74,6 -95,18 -22,12 -40,29 -56,53 -15,24 -26,39 -32,47 -6,7 -20,11 -41,11 -19,0 -35,-6 -48,-18 -14,-12 -21,-27 -21,-46 0,-30 11,-58 31,-86 21,-28 54,-51 98,-69 44,-18 99,-26 164,-26 74,0 132,8 174,26 42,17 71,44 89,82 17,38 26,87 26,149 0,40 -1,73 -1,100 0,27 0,58 -1,91 0,32 6,64 16,99 10,33 15,55 15,65 0,17 -7,33 -24,47 -16,14 -34,21 -54,21 -18,0 -35,-8 -51,-24 -17,-16 -35,-39 -53,-70zm-12 -242c-24,9 -59,19 -106,29 -47,10 -79,17 -97,22 -18,4 -35,14 -52,27 -16,14 -24,33 -24,58 0,25 10,46 29,64 19,18 44,27 75,27 33,0 63,-7 91,-22 28,-14 49,-33 62,-56 15,-25 22,-67 22,-125l0 -24zm872 118c0,46 -12,85 -34,118 -22,33 -56,58 -99,75 -44,17 -98,25 -160,25 -60,0 -112,-9 -155,-28 -42,-18 -74,-41 -94,-68 -21,-28 -31,-55 -31,-83 0,-18 7,-34 20,-47 13,-13 29,-20 49,-20 18,0 31,5 41,13 9,9 18,21 27,36 17,30 37,52 61,67 24,15 56,22 97,22 34,0 61,-7 83,-22 21,-15 32,-32 32,-51 0,-30 -11,-51 -33,-65 -23,-13 -59,-26 -110,-38 -58,-14 -105,-30 -141,-45 -36,-16 -64,-37 -86,-62 -22,-26 -33,-58 -33,-95 0,-34 10,-65 30,-95 20,-30 50,-54 89,-72 39,-17 86,-26 141,-26 43,0 82,4 116,13 35,9 63,21 86,36 24,16 41,32 53,51 12,18 18,36 18,53 0,19 -6,35 -19,47 -13,13 -31,19 -55,19 -17,0 -32,-5 -44,-15 -12,-10 -25,-24 -41,-44 -13,-16 -27,-29 -45,-39 -17,-10 -40,-15 -69,-15 -30,0 -55,7 -76,19 -19,13 -29,30 -29,49 0,17 7,32 22,43 14,11 34,20 59,28 25,7 59,16 103,27 51,12 94,27 127,45 32,18 57,38 74,62 17,24 26,51 26,82zm308 -366l0 482c0,34 -8,59 -24,76 -16,17 -36,26 -60,26 -25,0 -45,-9 -60,-26 -15,-18 -23,-43 -23,-76l0 -477c0,-34 8,-58 23,-75 15,-17 35,-25 60,-25 24,0 44,8 60,25 16,17 24,40 24,70zm-83 -173c-23,0 -43,-7 -59,-21 -17,-14 -25,-35 -25,-61 0,-23 9,-43 26,-58 16,-15 36,-23 58,-23 22,0 41,7 58,21 17,14 25,34 25,60 0,26 -8,46 -24,60 -17,15 -36,22 -59,22zm881 418c0,50 -7,95 -23,137 -16,42 -38,78 -67,108 -30,31 -65,54 -106,70 -40,16 -86,24 -137,24 -51,0 -97,-8 -137,-24 -40,-17 -75,-40 -105,-71 -29,-30 -52,-66 -67,-107 -15,-42 -23,-87 -23,-138 0,-50 8,-97 23,-139 16,-42 38,-77 67,-107 29,-30 64,-53 105,-69 41,-16 87,-24 137,-24 50,0 96,8 137,24 41,16 77,40 106,70 30,30 52,66 67,108 16,42 23,87 23,138zm-168 0c0,-69 -15,-121 -45,-159 -30,-38 -70,-57 -120,-57 -33,0 -62,8 -87,25 -24,17 -44,42 -57,75 -14,33 -20,72 -20,116 0,43 6,81 20,114 13,33 32,58 56,75 25,17 54,26 88,26 50,0 90,-19 120,-57 30,-38 45,-91 45,-158zm451 -248l0 20c30,-39 62,-67 97,-85 34,-18 75,-27 120,-27 44,0 83,9 118,29 35,19 61,46 78,81 11,20 18,42 21,66 3,24 5,54 5,90l0 311c0,34 -8,59 -23,76 -15,17 -35,26 -60,26 -24,0 -45,-9 -60,-26 -16,-18 -24,-43 -24,-76l0 -278c0,-55 -7,-97 -23,-127 -15,-29 -45,-43 -91,-43 -30,0 -57,9 -81,26 -25,18 -43,43 -54,74 -8,25 -12,71 -12,139l0 209c0,34 -8,60 -24,77 -16,16 -36,25 -61,25 -24,0 -44,-9 -59,-26 -15,-18 -23,-43 -23,-76l0 -482c0,-32 7,-56 21,-72 14,-15 32,-23 56,-23 15,0 28,3 40,10 12,7 21,18 28,31 8,14 11,31 11,51zm1028 493c-41,32 -80,55 -117,71 -38,15 -80,23 -127,23 -43,0 -81,-9 -113,-25 -33,-17 -58,-40 -75,-69 -18,-29 -27,-61 -27,-94 0,-46 15,-85 44,-117 29,-33 69,-54 120,-65 10,-3 36,-8 78,-17 42,-8 78,-16 108,-23 30,-7 63,-16 98,-26 -2,-44 -11,-77 -27,-97 -16,-21 -48,-31 -97,-31 -43,0 -75,6 -96,18 -22,12 -40,29 -55,53 -15,24 -26,39 -33,47 -6,7 -20,11 -40,11 -19,0 -35,-6 -49,-18 -14,-12 -20,-27 -20,-46 0,-30 10,-58 31,-86 21,-28 53,-51 97,-69 44,-18 99,-26 165,-26 73,0 131,8 173,26 42,17 72,44 89,82 17,38 26,87 26,149 0,40 0,73 0,100 -1,27 -1,58 -1,91 0,32 5,64 15,99 11,33 16,55 16,65 0,17 -8,33 -24,47 -16,14 -35,21 -55,21 -17,0 -34,-8 -51,-24 -17,-16 -34,-39 -53,-70zm-11 -242c-25,9 -60,19 -107,29 -46,10 -79,17 -97,22 -18,4 -35,14 -51,27 -16,14 -25,33 -25,58 0,25 10,46 29,64 19,18 44,27 75,27 33,0 64,-7 92,-22 28,-14 48,-33 61,-56 15,-25 23,-67 23,-125l0 -24zm333 234l0 -724c0,-33 8,-59 23,-76 15,-17 35,-25 60,-25 25,0 45,8 61,25 15,17 23,42 23,76l0 724c0,34 -8,60 -23,77 -16,16 -36,25 -61,25 -25,0 -44,-9 -60,-26 -15,-18 -23,-43 -23,-76z"/>
  </g>
 </g>
</svg>
